<?xml version="1.0" encoding="utf-8"?>
<!-- Generator: Adobe Illustrator 24.1.2, SVG Export Plug-In . SVG Version: 6.00 Build 0)  -->
<svg version="1.1" id="Layer_1" xmlns="http://www.w3.org/2000/svg" xmlns:xlink="http://www.w3.org/1999/xlink" x="0px" y="0px"
	 viewBox="0 0 444.8 455.5" style="enable-background:new 0 0 444.8 455.5;" xml:space="preserve">
<style type="text/css">
	.st0{clip-path:url(#SVGID_2_);fill:url(#SVGID_3_);}
	.st1{fill:#000002;}
	.st2{clip-path:url(#SVGID_5_);fill:url(#SVGID_6_);}
	.st3{clip-path:url(#SVGID_8_);fill:url(#SVGID_9_);}
	.st4{clip-path:url(#SVGID_11_);fill:url(#SVGID_12_);}
	.st5{clip-path:url(#SVGID_14_);fill:url(#SVGID_15_);}
	.st6{clip-path:url(#SVGID_17_);fill:url(#SVGID_18_);}
	.st7{clip-path:url(#SVGID_20_);fill:url(#SVGID_21_);}
	.st8{fill:#BBBDBF;}
	.st9{fill:#231F20;}
	.st10{fill:#FFFFFF;}
</style>
<g>
	<g>
		<defs>
			<path id="SVGID_1_" d="M65.4,221c-3.6,88.7,63.8,163.9,150.4,167.6s160-65.4,163.6-154.1C383,145.8,315.6,70.6,229,66.9
				c-2.2-0.1-4.5-0.1-6.7-0.1C138.7,66.8,68.9,134.6,65.4,221"/>
		</defs>
		<clipPath id="SVGID_2_">
			<use xlink:href="#SVGID_1_"  style="overflow:visible;"/>
		</clipPath>
		
			<radialGradient id="SVGID_3_" cx="1897.405" cy="1197.71" r="3.6179" gradientTransform="matrix(-43.4347 0 0 44.4945 82635.6875 -53063.8164)" gradientUnits="userSpaceOnUse">
			<stop  offset="0" style="stop-color:#FFFFFF"/>
			<stop  offset="0.4481" style="stop-color:#FDFDFD"/>
			<stop  offset="0.6622" style="stop-color:#F5F6F6"/>
			<stop  offset="0.8265" style="stop-color:#E8E9EA"/>
			<stop  offset="0.9647" style="stop-color:#D6D8D9"/>
			<stop  offset="1" style="stop-color:#D0D2D3"/>
		</radialGradient>
		<rect x="61.7" y="66.8" class="st0" width="321.3" height="325.5"/>
	</g>
	<path class="st1" d="M245.6,173.5c0.9,1,0.9,2.8,0.6,3.9c6.4,0.1,5.2,4.8,10.4,2.3c-6.3-7.2-9.1-9.4-12.5-12c-5,0.6-9.5,1.1-15,1.9
		c-2.4,3-2.3,5.7-1.9,5.7c1.5-0.1,2.7-3.2,5.6-1.7c1.7,2.5,3.3,4.4,6.7,5.1C241.5,179,245.2,177.6,245.6,173.5"/>
	<g>
		<defs>
			<path id="SVGID_4_" d="M271.8,142.5c11.2,3.4,23.6,13.1,28.2,25.6c-0.1,0.3-1.2,2.3-1.2,2.4c-5.2-3.2-9.3-3.9-15.6-1
				c0.6,1.2,6.8,7.3,6.8,7.3s3.2-0.7,4-4.8c0,0,5.2,5.9,3.1,12.4c3.6,4.2,11.4,13,14.6,19.6c0.7,1.5-0.6,5.5-1.7,7.6
				c2.5,5.6,1.4,37.1-7.2,35.9c0,0-1.4-14.8-9.1-15.7c0.4-2.1,2.1-8.6,3.3-10.5c2.3-3.7,5.9-7.1,9.8-9.7c1.9-1.3,3.5-6.5,2.8-6.7
				c-0.8-0.3-4.8,2.8-10.9,3.1c-4.4,0.2-9.1-0.9-12.9-1.9c-4.3-1.2-7.5-2.3-8.4-1.8c-1.3,0.8-0.5,5.4,1.9,7.1
				c7.2,5.4,11.1,5.5,12.7,9.7c1.2,2.9,0.6,8.3,0.2,10.7c-2.2-0.1-5,0.4-7.4,2c-7.1,4.8-13.6,8.7-20.3,8.9c-6.6,0.3-14.7-2.9-17-3.5
				c-2.4-0.2,0.6,7.1,2.1,8.3c3.1,2.5,8.5,1.5,11,0.7c3.2-1.1,5.7-2.4,11.7-4.8c7.3-3,15.1-6.6,20.2-5.6c3,0.6,7.5,1.5,8.9,12.7
				c1.1,9.2-1.9,16.1-6.6,23.6c-1-1.5-1.9-2.5-3.2-3.1c-5.8,8.1-16.3,9.1-24.2,8.4c-0.4-6.4-6.6-11.1-10-12.2
				c-5.5-1.7-21.5-1.3-28.3-3.9c21.1,19.3,53.1,31.6,66.1,61.5c8.7,20,3.6,33.1,3.6,33.2c38.7-23.9,30.2-74.3,14.4-91.4
				c13.9,4.2,34.1,27.4,23.7,57.9c11.4-13.7,20.5-32.1,22.6-38.3c7-18.3,11.2-55.4-24.5-77.1c18.9,0.3,33,12.1,36,21.8
				c0.1-7.6-0.6-15-1-17.5c-3-20.1-22.2-42.2-44.2-46.3c12.6-3.7,22.9,0,29.3,3.8c4.5,2.7,7.1,5.3,7.2,5.3
				c-7.6-23-40.6-38.9-67.5-38.9C286,137.5,278.1,139.1,271.8,142.5"/>
		</defs>
		<clipPath id="SVGID_5_">
			<use xlink:href="#SVGID_4_"  style="overflow:visible;"/>
		</clipPath>
		
			<linearGradient id="SVGID_6_" gradientUnits="userSpaceOnUse" x1="1902.4054" y1="1213.5085" x2="1906.0233" y2="1213.5085" gradientTransform="matrix(-34.3829 -13.1983 -13.1983 34.3829 81790.9297 -16342.6338)">
			<stop  offset="0" style="stop-color:#0066B2"/>
			<stop  offset="0.1534" style="stop-color:#0066B2"/>
			<stop  offset="0.3386" style="stop-color:#005290"/>
			<stop  offset="0.7448" style="stop-color:#00213B"/>
			<stop  offset="1" style="stop-color:#000002"/>
		</linearGradient>
		<polygon class="st2" points="352.6,405.6 155,329.8 247.1,90 444.6,165.8 		"/>
	</g>
	<g>
		<defs>
			<path id="SVGID_7_" d="M167.1,281.2c2.1,24.4,15.9,79,55.9,98.7h0.1c26.4-110.8-60-103-24.3-207.8
				C177.3,190.5,163.2,235.8,167.1,281.2"/>
		</defs>
		<clipPath id="SVGID_8_">
			<use xlink:href="#SVGID_7_"  style="overflow:visible;"/>
		</clipPath>
		
			<linearGradient id="SVGID_9_" gradientUnits="userSpaceOnUse" x1="1857.6864" y1="1173.0569" x2="1861.3042" y2="1173.0569" gradientTransform="matrix(-13.9084 51.9069 51.9069 13.9084 -34820.5742 -112561.0781)">
			<stop  offset="0" style="stop-color:#0066B2"/>
			<stop  offset="0.411" style="stop-color:#0066B2"/>
			<stop  offset="0.5399" style="stop-color:#005290"/>
			<stop  offset="0.8225" style="stop-color:#00213B"/>
			<stop  offset="1" style="stop-color:#000002"/>
		</linearGradient>
		<polygon class="st3" points="301.4,186.1 243.7,401.5 111.1,366 168.8,150.5 		"/>
	</g>
	<g>
		<defs>
			<path id="SVGID_10_" d="M262.3,139.2h-0.2c-10.7-30.7-36.3-53.1-65.7-61.4c-20.5,3.7-39.6,11.7-56.4,23.2
				c37.2-6.9,78.5,4.2,109.5,33.9c5.1,4.9,9.7,10,13.9,15.4c3.1-8.8,14.4-28.8,36.2-28.2c14.5,0.4,20.8,7.9,24.5,16.1
				c0-0.4,2.3-10.3,0.9-20.1c0-0.1,0-0.1,0-0.1c-7.1-7-14.9-13.4-23.3-18.8c0,0-0.1,0-0.1,0c-18.3,2.6-30.9,22.3-35.7,35.8
				c0,0-0.2,0-0.2,0c1.1-27.4,13.2-37.7,22.3-43.6c0,0,0,0,0.1,0c-18.1-9.2-38.2-14.8-59.7-15.7c-0.5,0-1,0-1.5,0
				C259.8,97.2,262.3,138.8,262.3,139.2"/>
		</defs>
		<clipPath id="SVGID_11_">
			<use xlink:href="#SVGID_10_"  style="overflow:visible;"/>
		</clipPath>
		
			<linearGradient id="SVGID_12_" gradientUnits="userSpaceOnUse" x1="1861.296" y1="1303.2543" x2="1864.9138" y2="1303.2543" gradientTransform="matrix(3.893 -18.3152 -18.3152 -3.893 16850.293 39306.1641)">
			<stop  offset="0" style="stop-color:#0066B2"/>
			<stop  offset="0.411" style="stop-color:#0066B2"/>
			<stop  offset="0.5399" style="stop-color:#005290"/>
			<stop  offset="0.8225" style="stop-color:#00213B"/>
			<stop  offset="1" style="stop-color:#000002"/>
		</linearGradient>
		<polygon class="st4" points="124.8,147 148.1,37.6 341.7,78.8 318.4,188.2 		"/>
	</g>
	<g>
		<defs>
			<path id="SVGID_13_" d="M113.8,123.7c-18.3,19.9-31.3,44.9-37,72.8c42.3-59.2,107.9-65.8,133.9-61.2
				c-31.9,2.7-68.5,17.6-89.7,36.3c-23.2,20.5-37.9,44.3-46.9,67.5c0,0.1,0,0.2-0.1,0.2c2.2,29.6,12.8,57,29.4,79.5c0,0,0,0,0,0
				c-2.7-32.3,8.2-75.3,34.2-111c35.8-49.1,76.7-71.5,111.5-64.9c-23.5-21.5-51.8-30.4-80-30.4C150.1,112.8,131.2,116.8,113.8,123.7
				"/>
		</defs>
		<clipPath id="SVGID_14_">
			<use xlink:href="#SVGID_13_"  style="overflow:visible;"/>
		</clipPath>
		
			<linearGradient id="SVGID_15_" gradientUnits="userSpaceOnUse" x1="1899.0133" y1="1207.5936" x2="1902.6311" y2="1207.5936" gradientTransform="matrix(-41.4375 -10.3315 -10.3315 41.4375 91393.5313 -30187.7422)">
			<stop  offset="0" style="stop-color:#0066B2"/>
			<stop  offset="0.411" style="stop-color:#0066B2"/>
			<stop  offset="0.5399" style="stop-color:#005290"/>
			<stop  offset="0.8225" style="stop-color:#00213B"/>
			<stop  offset="1" style="stop-color:#000002"/>
		</linearGradient>
		<polygon class="st5" points="238.9,360.1 25.7,306.9 84.3,71.7 297.6,124.9 		"/>
	</g>
	<g>
		<defs>
			<path id="SVGID_16_" d="M131,240.9c-14.6,36.3-17.2,72.3-6.9,101c0,0,0,0,0,0.1c19,17.1,42.3,29.4,68.1,34.9
				c-15.4-16.5-27.4-40.2-33.1-69.5c-11.9-60.8,8-120.4,43.6-148.1C174.5,173.2,144.8,206.4,131,240.9"/>
		</defs>
		<clipPath id="SVGID_17_">
			<use xlink:href="#SVGID_16_"  style="overflow:visible;"/>
		</clipPath>
		
			<linearGradient id="SVGID_18_" gradientUnits="userSpaceOnUse" x1="1853.7318" y1="1175.9103" x2="1857.3497" y2="1175.9103" gradientTransform="matrix(-8.3452 59.3793 59.3793 8.3452 -54180.8203 -119731.3438)">
			<stop  offset="0" style="stop-color:#0066B2"/>
			<stop  offset="0.135" style="stop-color:#0066B2"/>
			<stop  offset="0.2329" style="stop-color:#075DAC"/>
			<stop  offset="0.4908" style="stop-color:#17479D"/>
			<stop  offset="0.9877" style="stop-color:#000002"/>
			<stop  offset="1" style="stop-color:#000002"/>
		</linearGradient>
		<polygon class="st6" points="232.7,163.4 201,389 83.8,372.5 115.5,146.9 		"/>
	</g>
	<g>
		<defs>
			<path id="SVGID_19_" d="M202.4,176L202.4,176L202.4,176z M202.4,176c-5.1,19.2-5.8,35.4-3.9,49.6c0,0,0,0,0,0
				c3.6,30.4,19.3,50.9,31.4,73c9.9,18.7,17.4,38.5,13.7,65.1c-0.7,4.8-1.7,9.8-3.2,15c14.1-1.8,27.7-5.6,40.4-11.3
				c0-0.1,0.1-0.1,0.1-0.2h0v0c8.3-19.1,6-41.1-8.4-57.2c-7.7-8.6-23.3-22.8-38.7-33.7c-5-3.6-35.4-26.6-30.2-66.8
				c1.9,13.7,13.7,11.1,17.6,26.6v0v0c2-30.3-20.4-27.6-18.7-59.9c0-0.2,0-0.3,0-0.3C202.5,175.9,202.4,176,202.4,176"/>
		</defs>
		<clipPath id="SVGID_20_">
			<use xlink:href="#SVGID_19_"  style="overflow:visible;"/>
		</clipPath>
		
			<linearGradient id="SVGID_21_" gradientUnits="userSpaceOnUse" x1="1839.2839" y1="1180.1602" x2="1842.9019" y2="1180.1602" gradientTransform="matrix(19.584 53.8066 53.8066 -19.584 -99315.2891 -75678.5781)">
			<stop  offset="0" style="stop-color:#0066B2"/>
			<stop  offset="0.411" style="stop-color:#0066B2"/>
			<stop  offset="0.5399" style="stop-color:#005290"/>
			<stop  offset="0.8225" style="stop-color:#00213B"/>
			<stop  offset="1" style="stop-color:#000002"/>
		</linearGradient>
		<polygon class="st7" points="278.4,146.1 354.5,355 207.5,408.5 131.4,199.6 		"/>
	</g>
	<path class="st8" d="M222.4,455.5C99.8,455.5,0,353.3,0,227.7C0,102.2,99.8,0,222.4,0C345,0,444.8,102.2,444.8,227.7
		C444.8,353.3,345,455.5,222.4,455.5 M222.4,8.4c-118,0-214.1,98.4-214.1,219.4c0,121,96,219.4,214.1,219.4
		c118.1,0,214.1-98.4,214.1-219.4C436.5,106.8,340.4,8.4,222.4,8.4"/>
	<path class="st9" d="M222.4,8.4c-118,0-214.1,98.4-214.1,219.4c0,121,96,219.4,214.1,219.4c118.1,0,214.1-98.4,214.1-219.4
		C436.5,106.8,340.4,8.4,222.4,8.4 M215.8,388.6c-86.6-3.7-154-78.9-150.4-167.6C69,132.3,142.4,63.2,229,66.9
		c86.6,3.7,154,78.9,150.4,167.6C375.8,323.2,302.4,392.3,215.8,388.6"/>
	<path class="st10" d="M43.5,267.5c0.4,1.8-0.7,3.6-2.5,4c-1.8,0.4-3.5-0.8-3.9-2.6c-0.4-1.8,0.7-3.6,2.5-4
		C41.3,264.5,43.1,265.7,43.5,267.5"/>
	<path class="st10" d="M54.8,287.9l2.1,5.3c0.9,2.4,1.8,4.5,0.5,7.3c-1.3,2.9-4.2,4.2-5.4,4.7c-1.1,0.5-4.4,1.7-7.4,0.3
		c-2.5-1.3-3.4-3.6-4-5l-2.3-5.8L54.8,287.9z M53.7,291L41,296.2l1.2,3c0.6,1.5,1.1,2.6,2.1,3.5c1.1,0.9,3.1,1.7,6.7,0.3
		c2.7-1.1,4.9-2.9,4.7-6c-0.1-1-0.5-2-0.9-3.2L53.7,291z"/>
	<polygon class="st10" points="64.8,311.3 49,319.6 47.9,317.4 63.7,309.1 	"/>
	<path class="st10" d="M64.1,329.7c-0.9-2.5-2.2-6.3,0.9-8.3c1.5-1,2.9-0.7,3.8-0.5c2,0.6,3.2,2.2,3.8,3.3c0.7,1.1,1.6,2.8,1.5,4.9
		c-0.1,2.2-1.5,3.5-2.3,4.3l-1.4-2c0.5-0.3,1.6-1.2,1.7-2.9c0.1-1.2-0.4-2.2-1-3.2c-1.1-1.9-2.9-3-4.5-2c-1.7,1.1-1,3-0.5,4.6l0.6,2
		c0.5,1.4,0.7,2.1,0.8,2.9c0.5,2.9-1.1,4.4-2.1,5.1c-1.4,0.9-3.1,1.2-4.9,0.4c-1.9-0.8-3.1-2.6-3.7-3.5c-0.9-1.4-3.6-6.3,1.2-9.9
		l1.6,2c-0.6,0.4-1.8,1.3-2.1,3.1c-0.2,1.4,0.3,2.7,1,3.8c1.3,2.2,3.4,3.2,5.4,1.9c1.7-1.1,1.3-2.9,0.7-4.6L64.1,329.7z"/>
	<polygon class="st10" points="82.4,342.8 70.1,352.8 68.6,350.9 80.9,340.9 77.6,336.6 79.3,335.2 87.4,345.7 85.7,347.1 	"/>
	<path class="st10" d="M86.1,359.9l-5.4,5.5l-1.6-1.7l12.6-12.9l4.7,4.8c1.7,1.8,2.8,2.9,3,4.7c0.2,1.7-0.4,3.1-1.6,4.3
		c-3,3-5.7,1-6.5,0.5l-2,9.2l-2-2.1l2-9L86.1,359.9z M87.5,358.5l3.3,3.4c0.5,0.6,1,1.1,1.7,1.5c1.4,0.9,2.7,0.5,3.6-0.5
		c0.3-0.3,1.2-1.2,1-2.6c-0.1-1.2-0.9-2.1-1.9-3.1l-3.2-3.3L87.5,358.5z"/>
	<polygon class="st10" points="109.6,367.9 98.2,382 96.3,380.4 107.8,366.3 	"/>
	<path class="st10" d="M116.6,373.7l6.1,4.3c0.9,0.6,1.4,1,1.9,1.5c1.3,1.3,2.3,3.7,0.7,6c-1.2,1.8-3.1,2.1-4.4,1.7
		c0.4,0.6,2.1,2.7,0.2,5.7c-0.5,0.7-1.7,2.2-3.9,2.2c-1.7,0-2.7-0.8-4.9-2.3l-5.7-4L116.6,373.7z M113.1,383.1l-3.5,5.2l4.3,3.1
		c1.1,0.7,1.4,1,1.9,1.2c1.5,0.6,2.5,0,3.3-1.2c1.2-1.8,0.3-3.2,0.2-3.4c-0.4-0.7-0.8-1-2.6-2.3L113.1,383.1z M117.3,376.8l-3.1,4.6
		l3.1,2.2c2.2,1.6,3.3,2.3,4.6,1.8c0.5-0.2,1-0.6,1.3-1.1c1.4-2.2-0.5-3.6-1.3-4.2L117.3,376.8z"/>
	<path class="st10" d="M147.6,392.7l-5.2,10.4c-0.4,0.7-0.7,1.4-1.3,2c-1.4,1.7-4.3,3-8,1c-1.2-0.6-3.3-2-3.8-4.7
		c-0.4-1.9,0.3-3.1,1.2-5l5.1-10.1l2.1,1.1l-4.9,9.8c-0.8,1.5-1.4,2.7-1.1,4.2c0.3,1.7,1.7,2.5,2.3,2.8c1.9,1,3.8,0.8,5.1-0.7
		c0.5-0.6,0.9-1.3,1.4-2.3l4.9-9.7L147.6,392.7z"/>
	<polygon class="st10" points="158.1,397.2 151.6,414.1 149.3,413.2 155.9,396.3 	"/>
	<path class="st10" d="M166.7,400.5l5.4,1.6c2.4,0.7,4.6,1.4,6,4.1c1.4,2.9,0.6,6,0.3,7.3c-0.3,1.2-1.4,4.6-4.4,6.2
		c-2.5,1.3-4.8,0.6-6.3,0.2l-5.9-1.7L166.7,400.5z M168.4,403.2l-3.8,13.5l3,0.9c1.5,0.4,2.6,0.7,4,0.4c1.3-0.3,3.2-1.5,4.3-5.2
		c0.8-2.9,0.7-5.8-1.8-7.5c-0.9-0.6-1.9-0.9-3.1-1.2L168.4,403.2z"/>
	<path class="st10" d="M193.9,426.1c-5.4-0.8-8.3-5.2-7.5-10.8c1-6.7,5.9-8.8,10.3-8.2c4.9,0.7,8.4,4.8,7.5,10.6
		C203.5,423.2,199.8,427,193.9,426.1 M196.4,409.1c-4.4-0.7-6.8,2.6-7.4,6.6c-0.5,3.8,0.7,7.9,5.3,8.5c4.7,0.7,6.9-3.1,7.4-6.8
		C202.3,413,200.5,409.7,196.4,409.1"/>
	<path class="st10" d="M215.5,419.9l-0.1,7.8l-2.3,0l0.3-18.2l6.6,0.1c2.5,0.1,3.9,0.1,5.3,1.2c1.3,1,1.8,2.6,1.8,4.2
		c-0.1,4.3-3.4,4.8-4.3,5l4.9,8l-2.8-0.1l-4.7-7.8L215.5,419.9z M215.6,417.9l4.7,0.1c0.8,0,1.5,0,2.2-0.1c1.7-0.4,2.3-1.6,2.3-2.9
		c0-0.5,0-1.7-1-2.6c-0.9-0.8-2.1-0.8-3.4-0.8l-4.6-0.1L215.6,417.9z"/>
	<path class="st10" d="M257.4,418.9l-6.7,1.2l-1.1,5.9l-2.5,0.4l3.8-19.2l2.4-0.4l9.4,16.9l-2.5,0.4L257.4,418.9z M256.4,417
		l-3.8-7.1l-1.5,8L256.4,417z"/>
	<path class="st10" d="M278.4,400.3l3.2,11.2c0.2,0.7,0.4,1.5,0.4,2.3c0.1,2.3-1.1,5.2-5.1,6.4c-1.3,0.4-3.7,0.9-5.9-0.8
		c-1.6-1.2-1.9-2.5-2.5-4.4l-3.1-10.9l2.3-0.7l3,10.6c0.4,1.6,0.8,3,2,3.8c1.4,1,2.9,0.6,3.6,0.4c2-0.6,3.3-2.1,3.3-4.1
		c0-0.8-0.2-1.6-0.5-2.7l-3-10.5L278.4,400.3z"/>
	<polygon class="st10" points="292.5,397 298.6,411.9 296.4,412.9 290.3,398 285.3,400.1 284.5,398.1 296.6,392.9 297.4,394.9 	"/>
	<path class="st10" d="M317.2,403.1c-4.8,2.7-9.7,1-12.3-4c-3.2-5.9-0.6-10.7,3.3-12.9c4.4-2.5,9.5-1.4,12.3,3.8
		C323.1,394.8,322.4,400.1,317.2,403.1 M309.1,388c-3.9,2.2-3.9,6.3-2,9.9c1.8,3.3,5.2,5.8,9.3,3.5c4.2-2.4,3.7-6.8,1.8-10
		C316.2,387.5,312.7,385.9,309.1,388"/>
	<path class="st10" d="M330.8,384.6l4.5,6.2l-1.9,1.4l-10.7-14.7l5.3-4c2-1.5,3.2-2.4,4.9-2.4c1.6,0,3,0.9,4,2.3
		c2.5,3.4,0.1,6-0.5,6.6l8.6,3.3l-2.3,1.7l-8.4-3.3L330.8,384.6z M329.6,383l3.8-2.9c0.6-0.5,1.2-0.9,1.6-1.5
		c1.1-1.3,0.8-2.7,0.1-3.7c-0.3-0.4-1-1.3-2.3-1.4c-1.2-0.1-2.1,0.7-3.2,1.5l-3.7,2.8L329.6,383z"/>
	<polygon class="st10" points="341.9,362 353.8,375.5 352.1,377.2 340.1,363.6 	"/>
	<polygon class="st10" points="356.5,346.8 358.1,348.4 360.5,366 368.1,357.6 369.7,359.1 360.2,369.5 358.5,367.9 356.3,350.4 
		349.4,357.9 347.8,356.4 	"/>
	<path class="st10" d="M376.8,340.7l-4.1,5.6l3.2,5l-1.5,2.1l-10.3-16.5l1.5-2l18.2,5.6l-1.5,2.1L376.8,340.7z M374.8,340.1
		l-7.5-2.4l4.3,6.8L374.8,340.1z"/>
	<path class="st10" d="M373.1,323.8l2.8-5c1.3-2.2,2.4-4.2,5.3-5c3.1-0.7,5.8,0.8,6.9,1.4c1.1,0.6,4.1,2.4,4.9,5.8
		c0.6,2.8-0.6,5-1.3,6.3l-3,5.5L373.1,323.8z M376.1,322.8l11.9,7l1.6-2.8c0.8-1.4,1.3-2.5,1.3-3.9c0-1.4-0.6-3.6-4-5.5
		c-2.5-1.5-5.3-2.1-7.5,0c-0.8,0.7-1.3,1.6-1.9,2.8L376.1,322.8z"/>
	<path class="st10" d="M403.9,302.8c-2,5.1-6.9,7-12,4.8c-6.1-2.6-7-7.9-5.3-12.1c1.9-4.7,6.5-7.2,11.9-5
		C403.4,292.6,406.1,297.2,403.9,302.8 M388.3,296.2c-1.7,4.3,0.8,7.4,4.5,9c3.5,1.4,7.6,1.1,9.3-3.2c1.8-4.6-1.3-7.6-4.7-9
		C393.5,291.4,389.9,292.3,388.3,296.2"/>
	<path class="st10" d="M401.3,267.5c0.4-1.8,2.1-3,3.9-2.6c1.8,0.4,2.9,2.2,2.5,4c-0.4,1.8-2.1,3-3.9,2.6
		C402,271.1,400.9,269.3,401.3,267.5"/>
	<path class="st10" d="M58.3,174.8l-8.5,2.6l-3,11.4l7.3,2l-1.3,5l-25.6-7.1l4.2-16c1.6-6,7-7.7,11.6-6.4c3,0.8,5.6,2.9,6.7,5.9
		l10.2-3.1L58.3,174.8z M32.6,184.8l10.2,2.8l2.6-9.8c0.9-3.3-1.2-5.7-3.8-6.4c-2.6-0.7-5.6,0.3-6.5,3.6L32.6,184.8z"/>
	<path class="st10" d="M65.6,124.3c7.3,4,9.2,12.4,4.4,21.5c-4.6,8.9-12.6,12.1-19.9,8.1c-7.2-4-9.1-12.6-4.4-21.4
		C50.3,123.6,58.3,120.3,65.6,124.3 M49.8,134.7c-3.1,5.9-2.4,12,2.7,14.8c5.1,2.8,10.4,0,13.5-5.9c3.1-5.9,2.4-12-2.7-14.8
		C58.2,126,52.9,128.8,49.8,134.7"/>
	<polygon class="st10" points="89.4,115.7 82.2,109.3 60,108.7 64,104.1 80.7,104.6 77.7,87.7 81.7,83 85.6,105.6 92.6,111.8 	"/>
	<path class="st10" d="M119.9,80.3L106,91.6l0.6,6.1l-4.4,3.6l-3-33L130,78.7l-4.4,3.5L119.9,80.3z M105.4,86.5l9.7-7.9l-10.9-3.8
		L105.4,86.5z"/>
	<polygon class="st10" points="140.1,72.5 129,47.8 133.5,45.6 142.8,66.5 159.5,58.7 161.3,62.6 	"/>
	<path class="st10" d="M192.2,46.4l0.9,7.7l-5,0.6l-3.3-27l14.8-1.9c6.8-0.9,10.8,3.6,11.4,8.3c0.6,4.8-2.2,10.1-9,11L192.2,46.4z
		 M190.4,31.4l1.3,10.8l9.5-1.2c4.2-0.5,5.9-3.5,5.5-6.2c-0.3-2.7-2.7-5.1-6.8-4.6L190.4,31.4z"/>
	<polygon class="st10" points="264.2,56.4 272.5,30.5 296.1,38.4 294.8,42.5 275.9,36.2 273.3,44.4 288.9,49.6 287.6,53.7 272,48.4 
		270.3,53.9 289.1,60.2 287.8,64.3 	"/>
	<polygon class="st10" points="337.2,96.1 352.3,79.2 344.2,71.6 347,68.5 366.9,87.1 364.1,90.3 356,82.7 340.9,99.6 	"/>
	<polygon class="st10" points="355,115.1 375.7,98 378.8,102 358.1,119.1 	"/>
	<path class="st10" d="M244,52.9l-4-8.1l-11.5-1l-0.6,7.7l-5-0.4l2.2-27.1l16.1,1.4c6,0.5,8.7,5.6,8.3,10.5
		c-0.3,3.1-1.8,6.2-4.5,7.8l4.8,9.8L244,52.9z M229.7,28.7l-0.9,10.8l9.9,0.8c3.4,0.3,5.2-2.2,5.5-5c0.2-2.7-1.3-5.6-4.6-5.9
		L229.7,28.7z"/>
	<path class="st10" d="M332.3,64.3c-2.3-2.8-5.1-4.9-8.4-7c-2.6-1.7-7.2-4.4-8.8-1.8c-3.5,5.8,18.4,10.7,11.7,21.6
		c-3.8,6.1-10.6,3.2-15.9-0.2c-3.8-2.4-7.5-5.4-10.1-8.2l2.6-3.9c2.5,2.9,6.2,5.9,9.9,8.3c3.6,2.3,7.8,4.3,9.5,1.6
		c3.8-6.2-18.3-11-11.8-21.6c3.7-6.1,10.6-2.6,15.2,0.3c4,2.6,6.7,4.9,8.6,7.2L332.3,64.3z"/>
	<path class="st10" d="M381,136.8l3.6-2.1l8.7,15.8c0,0-2.5,1.5-3,1.7c-4.8,2.2-12.8-0.7-17.1-8.5c-5-9.1-3.3-17.9,3.6-21.9
		c7-4,15-0.9,20.1,8.5c1.7,3.1,3.6,7.8,3.7,11.9l-4.2,2.4c0-2.2-0.4-6.6-3.2-11.6c-3.6-6.5-8.7-9.7-13.9-6.7
		c-4.9,2.8-5.6,8.8-2,15.3c2.1,3.8,6.8,6.7,9.6,6L381,136.8z"/>
	<polygon class="st10" points="385.6,170.8 411.4,163.9 417.6,188.5 413.5,189.6 408.5,170 400.4,172.1 404.6,188.4 400.5,189.5 
		396.4,173.2 390.9,174.7 395.9,194.3 391.9,195.4 	"/>
	<path class="st10" d="M417.2,226.1c-2.6,2.6-5.7,4-9.4,4c-3.7,0-6.9-1.2-9.5-3.8c-2.6-2.6-3.9-5.7-4-9.4c0-3.7,1.2-6.8,3.8-9.4
		c2.6-2.6,5.7-3.9,9.3-4c3.7,0,6.9,1.2,9.5,3.7c2.6,2.6,4,5.6,4,9.3C421.1,220.3,419.8,223.5,417.2,226.1 M399.4,208.8
		c-2.2,2.2-3.3,5-3.2,8.1c0,3.2,1.2,5.9,3.4,8.1c2.3,2.2,5,3.3,8.2,3.3c3.2,0,5.9-1.2,8.1-3.5c2.2-2.3,3.3-5,3.2-8.2
		c0-3.2-1.2-5.9-3.4-8.1c-2.3-2.2-5-3.3-8.2-3.3C404.4,205.4,401.7,206.6,399.4,208.8 M407.3,209.5c1.8,0,3.1,0.1,4,0.5
		c1.5,0.6,2.3,1.8,2.3,3.7c0,1.3-0.4,2.2-1.4,2.9c-0.5,0.3-1.2,0.6-2.1,0.7c1.2,0.2,2,0.6,2.5,1.4c0.6,0.8,0.8,1.5,0.8,2.3l0,1.1
		c0,0.3,0,0.7,0,1.1c0,0.4,0.1,0.6,0.1,0.8l0.1,0.2l-2.4,0c0-0.1,0-0.1,0-0.1c0,0,0-0.1,0-0.2l-0.1-0.5l0-1.1c0-1.7-0.5-2.8-1.4-3.3
		c-0.6-0.3-1.5-0.5-2.9-0.4l-2,0l0.1,5.8l-2.6,0l-0.2-14.6L407.3,209.5z M410.1,211.7c-0.7-0.4-1.7-0.5-3.1-0.5l-2.2,0l0.1,5.3
		l2.3,0c1.1,0,1.9-0.1,2.4-0.4c1-0.4,1.5-1.2,1.5-2.3C411.1,212.8,410.8,212.1,410.1,211.7"/>
</g>
</svg>
